<mxfile host="app.diagrams.net" agent="Mozilla/5.0 (Windows NT 10.0; Win64; x64) AppleWebKit/537.36 (KHTML, like Gecko) Chrome/130.0.0.0 Safari/537.36" version="24.8.4">
  <diagram name="Page-1" id="zCHdafHyRyZfpqhM1mEc">
    <mxGraphModel dx="880" dy="1568" grid="1" gridSize="10" guides="1" tooltips="1" connect="1" arrows="1" fold="1" page="1" pageScale="1" pageWidth="850" pageHeight="1100" math="0" shadow="0">
      <root>
        <mxCell id="0" />
        <mxCell id="1" parent="0" />
        <mxCell id="PzbTq-ou7AdBhT5f-LDt-25" style="edgeStyle=orthogonalEdgeStyle;rounded=0;orthogonalLoop=1;jettySize=auto;html=1;exitX=1;exitY=0.5;exitDx=0;exitDy=0;entryX=-0.014;entryY=0.688;entryDx=0;entryDy=0;entryPerimeter=0;" parent="1" source="PzbTq-ou7AdBhT5f-LDt-17" target="PzbTq-ou7AdBhT5f-LDt-23" edge="1">
          <mxGeometry relative="1" as="geometry">
            <mxPoint x="500" y="-945" as="targetPoint" />
          </mxGeometry>
        </mxCell>
        <mxCell id="PzbTq-ou7AdBhT5f-LDt-17" value="&amp;lt;&amp;lt; controller &amp;gt;&amp;gt;&lt;div&gt;BookingConfirmation Handler&lt;/div&gt;" style="swimlane;whiteSpace=wrap;html=1;startSize=30;" parent="1" vertex="1">
          <mxGeometry x="60" y="-1040" width="210" height="190" as="geometry">
            <mxRectangle x="50" y="-260" width="140" height="30" as="alternateBounds" />
          </mxGeometry>
        </mxCell>
        <mxCell id="QaNQSov0v_vxajIb7nO--4" style="edgeStyle=orthogonalEdgeStyle;rounded=0;orthogonalLoop=1;jettySize=auto;html=1;" parent="1" source="PzbTq-ou7AdBhT5f-LDt-19" target="PzbTq-ou7AdBhT5f-LDt-20" edge="1">
          <mxGeometry relative="1" as="geometry">
            <Array as="points">
              <mxPoint x="600" y="-800" />
              <mxPoint x="420" y="-800" />
            </Array>
          </mxGeometry>
        </mxCell>
        <mxCell id="PzbTq-ou7AdBhT5f-LDt-19" value="&lt;div&gt;&lt;br&gt;&lt;/div&gt;&lt;div&gt;Person&lt;/div&gt;&lt;div&gt;&lt;br&gt;&lt;/div&gt;" style="swimlane;whiteSpace=wrap;html=1;startSize=30;" parent="1" vertex="1">
          <mxGeometry x="510" y="-1040" width="190" height="190" as="geometry">
            <mxRectangle x="50" y="-260" width="140" height="30" as="alternateBounds" />
          </mxGeometry>
        </mxCell>
        <mxCell id="PzbTq-ou7AdBhT5f-LDt-23" value="+ personID: int {key}&lt;div&gt;+ personName: string&lt;/div&gt;&lt;div&gt;+ personPhoneNo: string&lt;/div&gt;&lt;div&gt;+ personEmail: string&lt;/div&gt;&lt;div&gt;+ personAddress: string&lt;/div&gt;" style="text;strokeColor=none;fillColor=none;align=left;verticalAlign=middle;spacingLeft=4;spacingRight=4;overflow=hidden;points=[[0,0.5],[1,0.5]];portConstraint=eastwest;rotatable=0;whiteSpace=wrap;html=1;" parent="PzbTq-ou7AdBhT5f-LDt-19" vertex="1">
          <mxGeometry y="40" width="190" height="80" as="geometry" />
        </mxCell>
        <mxCell id="axoxiXGiB8y4HDm093K_-1" value="" style="endArrow=none;html=1;rounded=0;" parent="PzbTq-ou7AdBhT5f-LDt-19" edge="1">
          <mxGeometry width="50" height="50" relative="1" as="geometry">
            <mxPoint y="160" as="sourcePoint" />
            <mxPoint x="190" y="160" as="targetPoint" />
          </mxGeometry>
        </mxCell>
        <mxCell id="QaNQSov0v_vxajIb7nO--6" style="edgeStyle=orthogonalEdgeStyle;rounded=0;orthogonalLoop=1;jettySize=auto;html=1;entryX=1;entryY=0.5;entryDx=0;entryDy=0;" parent="1" source="PzbTq-ou7AdBhT5f-LDt-20" target="PzbTq-ou7AdBhT5f-LDt-21" edge="1">
          <mxGeometry relative="1" as="geometry">
            <Array as="points">
              <mxPoint x="430" y="-415" />
            </Array>
          </mxGeometry>
        </mxCell>
        <mxCell id="PzbTq-ou7AdBhT5f-LDt-20" value="&lt;div&gt;Manager&lt;/div&gt;" style="swimlane;whiteSpace=wrap;html=1;startSize=30;" parent="1" vertex="1">
          <mxGeometry x="340" y="-760" width="190" height="190" as="geometry">
            <mxRectangle x="50" y="-260" width="140" height="30" as="alternateBounds" />
          </mxGeometry>
        </mxCell>
        <mxCell id="PzbTq-ou7AdBhT5f-LDt-22" value="+ managerID : int {key}&lt;div&gt;+ managerLevel: string&lt;/div&gt;&lt;div&gt;+ managerExperience: string&lt;/div&gt;&lt;div&gt;+ managerPerformance: string&lt;/div&gt;" style="text;strokeColor=none;fillColor=none;align=left;verticalAlign=middle;spacingLeft=4;spacingRight=4;overflow=hidden;points=[[0,0.5],[1,0.5]];portConstraint=eastwest;rotatable=0;whiteSpace=wrap;html=1;" parent="PzbTq-ou7AdBhT5f-LDt-20" vertex="1">
          <mxGeometry y="30" width="190" height="80" as="geometry" />
        </mxCell>
        <mxCell id="axoxiXGiB8y4HDm093K_-2" value="" style="endArrow=none;html=1;rounded=0;" parent="PzbTq-ou7AdBhT5f-LDt-20" edge="1">
          <mxGeometry width="50" height="50" relative="1" as="geometry">
            <mxPoint y="160" as="sourcePoint" />
            <mxPoint x="190" y="160" as="targetPoint" />
          </mxGeometry>
        </mxCell>
        <mxCell id="PzbTq-ou7AdBhT5f-LDt-21" value="&lt;div&gt;Booking Confirmation&lt;/div&gt;" style="swimlane;whiteSpace=wrap;html=1;startSize=30;" parent="1" vertex="1">
          <mxGeometry x="130" y="-510" width="190" height="190" as="geometry">
            <mxRectangle x="50" y="-260" width="140" height="30" as="alternateBounds" />
          </mxGeometry>
        </mxCell>
        <mxCell id="PzbTq-ou7AdBhT5f-LDt-24" value="+ confirmationID: int {key}&lt;div&gt;+ confirmationDate: date&lt;/div&gt;&lt;div&gt;+ confirmationTime: time&lt;/div&gt;&lt;div&gt;+ confirmationStatus: string&lt;/div&gt;" style="text;strokeColor=none;fillColor=none;align=left;verticalAlign=middle;spacingLeft=4;spacingRight=4;overflow=hidden;points=[[0,0.5],[1,0.5]];portConstraint=eastwest;rotatable=0;whiteSpace=wrap;html=1;" parent="PzbTq-ou7AdBhT5f-LDt-21" vertex="1">
          <mxGeometry y="30" width="170" height="90" as="geometry" />
        </mxCell>
        <mxCell id="axoxiXGiB8y4HDm093K_-3" value="" style="endArrow=none;html=1;rounded=0;" parent="PzbTq-ou7AdBhT5f-LDt-21" edge="1">
          <mxGeometry width="50" height="50" relative="1" as="geometry">
            <mxPoint y="160" as="sourcePoint" />
            <mxPoint x="190" y="160" as="targetPoint" />
          </mxGeometry>
        </mxCell>
        <mxCell id="99qLNWGt9-mDH3ZlaSx0-1" value="" style="endArrow=none;html=1;rounded=0;" parent="1" edge="1">
          <mxGeometry width="50" height="50" relative="1" as="geometry">
            <mxPoint x="60" y="-880" as="sourcePoint" />
            <mxPoint x="270" y="-880" as="targetPoint" />
          </mxGeometry>
        </mxCell>
        <mxCell id="QaNQSov0v_vxajIb7nO--12" style="edgeStyle=orthogonalEdgeStyle;rounded=0;orthogonalLoop=1;jettySize=auto;html=1;entryX=0.5;entryY=0;entryDx=0;entryDy=0;" parent="1" source="QaNQSov0v_vxajIb7nO--1" target="QaNQSov0v_vxajIb7nO--8" edge="1">
          <mxGeometry relative="1" as="geometry">
            <Array as="points">
              <mxPoint x="765" y="-540" />
              <mxPoint x="765" y="-540" />
            </Array>
          </mxGeometry>
        </mxCell>
        <mxCell id="QaNQSov0v_vxajIb7nO--1" value="&lt;div&gt;Customer&lt;/div&gt;" style="swimlane;whiteSpace=wrap;html=1;startSize=30;" parent="1" vertex="1">
          <mxGeometry x="660" y="-760" width="190" height="190" as="geometry">
            <mxRectangle x="50" y="-260" width="140" height="30" as="alternateBounds" />
          </mxGeometry>
        </mxCell>
        <mxCell id="QaNQSov0v_vxajIb7nO--2" value="+ customerID : int {key}&lt;div&gt;+ customeRating: string&lt;/div&gt;&lt;div&gt;&lt;br&gt;&lt;/div&gt;&lt;div&gt;&lt;br&gt;&lt;/div&gt;" style="text;strokeColor=none;fillColor=none;align=left;verticalAlign=middle;spacingLeft=4;spacingRight=4;overflow=hidden;points=[[0,0.5],[1,0.5]];portConstraint=eastwest;rotatable=0;whiteSpace=wrap;html=1;" parent="QaNQSov0v_vxajIb7nO--1" vertex="1">
          <mxGeometry y="30" width="190" height="80" as="geometry" />
        </mxCell>
        <mxCell id="QaNQSov0v_vxajIb7nO--3" value="" style="endArrow=none;html=1;rounded=0;" parent="QaNQSov0v_vxajIb7nO--1" edge="1">
          <mxGeometry width="50" height="50" relative="1" as="geometry">
            <mxPoint y="160" as="sourcePoint" />
            <mxPoint x="190" y="160" as="targetPoint" />
          </mxGeometry>
        </mxCell>
        <mxCell id="QaNQSov0v_vxajIb7nO--5" style="edgeStyle=orthogonalEdgeStyle;rounded=0;orthogonalLoop=1;jettySize=auto;html=1;exitX=0.5;exitY=1;exitDx=0;exitDy=0;" parent="1" source="PzbTq-ou7AdBhT5f-LDt-19" target="QaNQSov0v_vxajIb7nO--1" edge="1">
          <mxGeometry relative="1" as="geometry">
            <mxPoint x="605" y="-840" as="sourcePoint" />
            <Array as="points">
              <mxPoint x="600" y="-850" />
              <mxPoint x="600" y="-800" />
              <mxPoint x="755" y="-800" />
            </Array>
          </mxGeometry>
        </mxCell>
        <mxCell id="QaNQSov0v_vxajIb7nO--8" value="Booking" style="swimlane;whiteSpace=wrap;html=1;startSize=30;" parent="1" vertex="1">
          <mxGeometry x="670" y="-470" width="190" height="190" as="geometry">
            <mxRectangle x="50" y="-260" width="140" height="30" as="alternateBounds" />
          </mxGeometry>
        </mxCell>
        <mxCell id="QaNQSov0v_vxajIb7nO--13" style="edgeStyle=orthogonalEdgeStyle;rounded=0;orthogonalLoop=1;jettySize=auto;html=1;" parent="QaNQSov0v_vxajIb7nO--8" source="QaNQSov0v_vxajIb7nO--9" edge="1">
          <mxGeometry relative="1" as="geometry">
            <mxPoint x="-350" y="85" as="targetPoint" />
          </mxGeometry>
        </mxCell>
        <mxCell id="QaNQSov0v_vxajIb7nO--9" value="+ bookingID: int {key}&lt;div&gt;+ bookingDate: date&lt;/div&gt;&lt;div&gt;+ bookingTime: time&lt;/div&gt;&lt;div&gt;+ bookingQuantity: int&lt;/div&gt;&lt;div&gt;+bookingTotal: double&lt;/div&gt;&lt;div&gt;&lt;br&gt;&lt;/div&gt;" style="text;strokeColor=none;fillColor=none;align=left;verticalAlign=middle;spacingLeft=4;spacingRight=4;overflow=hidden;points=[[0,0.5],[1,0.5]];portConstraint=eastwest;rotatable=0;whiteSpace=wrap;html=1;" parent="QaNQSov0v_vxajIb7nO--8" vertex="1">
          <mxGeometry y="40" width="170" height="90" as="geometry" />
        </mxCell>
        <mxCell id="QaNQSov0v_vxajIb7nO--10" value="" style="endArrow=none;html=1;rounded=0;" parent="QaNQSov0v_vxajIb7nO--8" edge="1">
          <mxGeometry width="50" height="50" relative="1" as="geometry">
            <mxPoint y="160" as="sourcePoint" />
            <mxPoint x="190" y="160" as="targetPoint" />
          </mxGeometry>
        </mxCell>
      </root>
    </mxGraphModel>
  </diagram>
</mxfile>
